# xmcd
#
# Track frame offsets:
# 150
# 21741
# 41110
# 59343
# 69823
# 85689
# 102063
# 121315
# 137361
# 153801
# 170051
# 187923
# 204698
# 220302
# 234714
# 254212
# 270276
# 285127
# 301236
# 315831
#
# Disc length: 4455 seconds
#
#
# Revision: 0
# Processed by: cddbd v1.5.2PL0 Copyright (c) Steve Scherf et al.
# Submitted via: FreeRIP 2.951 
#
DISCID=10116514
DTITLE=bailão sertanejo - bailão sertanejo
DYEAR=2005
DGENRE=Country
TTITLE0=sinonimos - Chitãozinho e xororó e zé ramalho
TTITLE1=eu mereço - rick e renner
TTITLE2=vontade dividida - eduardo costa
TTITLE3=vou beber de novo - teodoro e sampaio
TTITLE4=o coração chora - di paulo e paulino
TTITLE5=em algum lugar do passado - chico rey e paraná
TTITLE6=ninguém vive sem amor - cézar e paulinho
TTITLE7=amor de arrepiar - ataíde e alexandre
TTITLE8=seu amor ainda é tudo - cian e giovani
TTITLE9=pinga na garganta - gino e geno
TTITLE10=chovendo estrelas - guilherme e santiago
TTITLE11=ninguém vai tirar você de mim - leonardo
TTITLE12=rumos do coração - mato grosso e mathias
TTITLE13=saudades desse amor - rich e renner
TTITLE14=coração partido - alex freitas e beto and tiago
TTITLE15=a mulher em mim - roberta miranda
TTITLE16=caro amigo - teodoro e sampaio and  matogrosso
TTITLE17=sombra boa e agua fresca - daniel
TTITLE18=mexe que mexe - zezé de camargo e luciano
TTITLE19=coração de pedra - bruno e marrone
EXTD=bailão sertanejo 
EXTT0=
EXTT1=
EXTT2=
EXTT3=
EXTT4=
EXTT5=
EXTT6=
EXTT7=
EXTT8=
EXTT9=
EXTT10=
EXTT11=
EXTT12=
EXTT13=
EXTT14=
EXTT15=
EXTT16=
EXTT17=
EXTT18=
EXTT19=
PLAYORDER=
